PathFileType	4	(X/Y/Z)	E:\Qualisys_Data\Carbon_Farble_Plate\Data\Amateur_Runner\S14\T3\S14T3V11_c3d.trc
DataRate	CameraRate	NumFrames	NumMarkers	Units	OrigDataRate	OrigDataStartFrame	OrigNumFrames
200.000000	200.000000	5	39	mm	200.000000	0	313
Frame#	Time	LSHO			RSHO			LICST			RICST			LASIS			LHEEL			RASIS			LTROC			RTROC			SACR			LTH1			LSK4			LTH2			LTH3			RHM5			LSK2			LTH4			RTH1			LTOE			RTH2			RTH3			RTH4			LLEP			RLEP			LSK1			LSK3			RSK1			LHM5			RSK2			LFT1			RSK3			RSK4			LLME			RLME			RTOE			RHEEL			RFT1			RFT2			LFT2			
		X1	Y1	Z1	X2	Y2	Z2	X3	Y3	Z3	X4	Y4	Z4	X5	Y5	Z5	X6	Y6	Z6	X7	Y7	Z7	X8	Y8	Z8	X9	Y9	Z9	X10	Y10	Z10	X11	Y11	Z11	X12	Y12	Z12	X13	Y13	Z13	X14	Y14	Z14	X15	Y15	Z15	X16	Y16	Z16	X17	Y17	Z17	X18	Y18	Z18	X19	Y19	Z19	X20	Y20	Z20	X21	Y21	Z21	X22	Y22	Z22	X23	Y23	Z23	X24	Y24	Z24	X25	Y25	Z25	X26	Y26	Z26	X27	Y27	Z27	X28	Y28	Z28	X29	Y29	Z29	X30	Y30	Z30	X31	Y31	Z31	X32	Y32	Z32	X33	Y33	Z33	X34	Y34	Z34	X35	Y35	Z35	X36	Y36	Z36	X37	Y37	Z37	X38	Y38	Z38	X39	Y39	Z39	

1	0	-2376.44287109375	1483.996215820312	-476.9721374511719	-2441.719482421875	1480.010986328125	-192.6486511230469	-2452.473876953125	1031.834716796875	-469.5712890625	-2434.99267578125	1039.681274414062	-196.0288696289062	-2419.5205078125	977.208740234375	-448.9876708984375	-2992.423095703125	345.71923828125	-347.2337646484375	-2409.6005859375	996.6258544921875	-218.5900726318359	-2574.470703125	935.629638671875	-487.1343078613281	-2536.012939453125	917.2044677734375	-155.6636810302734	-2584.1533203125	1040.914916992188	-338.4771118164062	-2595.9599609375	706.667724609375	-484.9345703125	-2872.90185546875	456.6597290039062	-419.8589782714844	-2661.451171875	734.8178100585938	-451.0097351074219	-2621.156005859375	612.9058227539062	-462.3233337402344	-2148.572998046875	136.5804290771484	-160.7803039550781	-2803.3818359375	525.8624267578125	-437.1563110351562	-2691.048095703125	641.779541015625	-434.3958129882812	-2350.078125	730.7265625	-169.4112396240234	-2958.1025390625	86.40805816650391	-375.1714477539062	-2423.248779296875	708.0343017578125	-157.3492736816406	-2317.4853515625	638.4590454101562	-193.2395477294922	-2395.029052734375	610.9000854492188	-175.37353515625	-2702.119140625	564.0149536132812	-448.6158447265625	-2347.448974609375	554.5765380859375	-181.1211547851562	-2746.182861328125	468.1035461425781	-449.5989685058594	-2819.131103515625	396.8011474609375	-437.5433349609375	-2306.419921875	439.6455993652344	-172.0384521484375	-2998.455322265625	150.4115295410156	-428.41552734375	-2390.03369140625	420.5212097167969	-180.9084930419922	-3012.181396484375	328.4439086914062	-314.6297912597656	-2289.294921875	338.0467834472656	-182.1015014648438	-2368.886474609375	326.2177124023438	-190.775146484375	-2970.66650390625	303.3318786621094	-408.7238464355469	-2291.002197265625	155.07470703125	-204.3623352050781	-2082.245361328125	182.0466613769531	-219.6476135253906	-2331.747314453125	106.3374328613281	-262.8270568847656	-2303.362548828125	87.73991394042969	-290.3101806640625	-2323.54443359375	83.25688171386719	-240.6568908691406	-3026.3818359375	336.6717834472656	-366.9368896484375
2	0.005	-2360.645263671875	1484.002807617188	-477.0955200195312	-2425.90625	1478.962768554688	-192.5476989746094	-2435.834228515625	1031.556518554688	-469.5634155273438	-2418.799560546875	1038.289672851562	-196.5252380371094	-2402.512939453125	977.0362548828124	-448.7548217773438	-2980.186279296875	350.8957214355469	-346.7623291015625	-2392.419677734375	995.0865478515624	-218.1234588623047	-2557.259765625	935.1387939453124	-487.9871215820312	-2519.739501953125	915.0643920898438	-156.0040740966797	-2567.252197265625	1039.832763671875	-338.2776184082031	-2577.003173828125	705.3590698242188	-485.0689697265625	-2857.0400390625	460.0739135742188	-420.2208862304688	-2642.7080078125	733.0410766601562	-450.5938110351562	-2601.668701171875	610.987060546875	-463.3262023925781	-2126.540771484375	139.4672698974609	-161.5526885986328	-2785.96826171875	527.57568359375	-438.0125732421875	-2672.089111328125	640.1143798828125	-434.4919738769531	-2334.659423828125	726.9860229492188	-169.9250335693359	-2946.854736328125	93.0817413330078	-377.1096496582031	-2408.218017578125	705.3670043945312	-156.2869262695312	-2302.485595703125	636.0553588867188	-194.3823699951172	-2380.26416015625	608.0880737304688	-175.2799987792969	-2683.41796875	562.9608764648438	-449.0716247558594	-2332.310791015625	552.714599609375	-181.0374450683594	-2729.896728515625	467.6462097167969	-449.6966552734375	-2804.518310546875	398.4572448730469	-437.5447387695312	-2289.22412109375	438.270751953125	-174.1566162109375	-2987.2646484375	157.5643157958984	-430.0936584472656	-2372.131591796875	417.9510803222656	-181.9214324951172	-3000.50048828125	334.248291015625	-313.6471252441406	-2269.835693359375	336.7163391113281	-184.9488677978516	-2348.67529296875	324.0758666992188	-190.5398712158203	-2958.004638671875	308.7298583984375	-407.8810729980469	-2268.874755859375	154.5668334960938	-205.1011962890625	-2060.3828125	186.1624450683594	-219.9264984130859	-2308.2275390625	105.3145751953125	-264.171630859375	-2279.297607421875	86.79115295410156	-291.6087951660156	-2300.600830078125	82.1423568725586	-242.148193359375	-3014.1005859375	342.3210144042969	-365.6136779785156
3	0.01	-2344.564697265625	1482.978515625	-476.4027404785156	-2409.20849609375	1478.078369140625	-191.8439331054688	-2419.431396484375	1030.794311523438	-469.0546264648438	-2401.64794921875	1036.979858398438	-196.9468841552734	-2385.616455078125	976.4935302734376	-449.0785827636719	-2967.33544921875	356.2330932617188	-344.2072143554688	-2375.3994140625	993.4776611328124	-218.2488250732422	-2540.101318359375	934.43798828125	-488.9040832519531	-2503.2939453125	912.9767456054688	-156.5205688476562	-2550.96337890625	1038.533081054688	-338.2523498535156	-2557.7138671875	703.0594482421875	-485.8487243652344	-2840.61962890625	463.1126708984375	-420.4068298339844	-2625.95263671875	731.4924926757812	-453.4727172851562	-2582.676025390625	609.469970703125	-464.342041015625	-2105.79150390625	141.3677673339844	-162.0094757080078	-2767.67724609375	528.6411743164062	-438.4354858398438	-2653.359130859375	637.730224609375	-435.4051818847656	-2319.2490234375	724.8375244140625	-169.8084411621094	-2935.93017578125	97.09611511230467	-378.5215454101562	-2391.8173828125	702.1242065429688	-155.5742645263672	-2287.72265625	632.77001953125	-194.8283386230469	-2364.238037109375	605.6019287109375	-174.5358734130859	-2664.6708984375	561.4764404296875	-449.8475952148438	-2314.840087890625	550.8116455078125	-180.0100402832031	-2713.7666015625	467.8140258789062	-450.6582946777344	-2789.763427734375	400.6022033691406	-437.2280883789062	-2271.308837890625	437.472900390625	-173.8707580566406	-2975.162353515625	164.5298919677734	-431.0144653320312	-2354.556640625	416.2515869140625	-182.8192443847656	-2988.1162109375	339.1631164550781	-312.8046875	-2251.878173828125	335.645751953125	-186.3955535888672	-2329.929931640625	322.8260192871094	-192.0594787597656	-2945.431396484375	314.7806091308594	-407.0005187988281	-2247.463623046875	153.7446136474609	-206.5397033691406	-2039.824340820312	188.7096099853516	-219.5967864990234	-2285.674560546875	104.1310272216797	-265.9715270996094	-2256.35791015625	85.6625747680664	-292.7850952148438	-2276.76171875	80.66978454589844	-242.9511871337891	-2998.8720703125	347.8606567382812	-360.7489624023438
4	0.015	-2327.920166015625	1481.702392578125	-475.8500061035156	-2393.203125	1476.257202148438	-191.045166015625	-2402.64111328125	1030.255737304688	-469.1344299316406	-2385.717041015625	1034.227294921875	-196.8552856445312	-2369.31640625	975.6437377929688	-449.4093322753906	-2954.62646484375	361.6075744628906	-343.1606140136719	-2359.69140625	991.6390380859376	-218.3268890380859	-2522.544921875	933.0911865234376	-489.5666198730469	-2486.3876953125	910.3558349609376	-156.8386688232422	-2534.587890625	1037.446411132812	-338.29150390625	-2538.386474609375	701.1703491210938	-486.37451171875	-2823.85498046875	466.1305541992188	-420.5652160644531	-2606.074951171875	728.8206787109375	-452.7105712890625	-2563.475830078125	607.2239990234375	-464.4417114257812	-2086.272216796875	142.6806793212891	-162.7176513671875	-2748.97119140625	529.55615234375	-439.0062255859375	-2633.874267578125	634.7276611328125	-436.1385498046875	-2303.06201171875	722.2660522460938	-169.9391937255859	-2923.946044921875	102.7457809448242	-380.0135192871094	-2376.8046875	698.884033203125	-154.5511627197266	-2272.33642578125	630.0195922851562	-195.3130645751953	-2349.3369140625	602.7471923828125	-174.4795532226562	-2645.392822265625	559.5502319335938	-450.870849609375	-2299.09716796875	549.1270141601562	-180.6292266845703	-2696.790771484375	467.1676330566406	-450.9725036621094	-2774.123046875	401.5431823730469	-436.8784790039062	-2254.1064453125	436.1602172851562	-176.4275665283203	-2962.757568359375	170.6244049072266	-431.54541015625	-2337.255615234375	414.2340393066406	-184.2969360351562	-2975.171875	343.9143371582031	-311.8254089355469	-2234.370849609375	334.9385070800781	-185.7139434814453	-2311.473388671875	320.8949279785156	-193.2101440429688	-2931.8203125	320.1482543945312	-405.9395141601562	-2227.070068359375	153.6018371582031	-207.7834930419922	-2020.479614257812	191.1521911621094	-220.1934814453125	-2265.3017578125	103.3445510864258	-268.2217712402344	-2235.262451171875	85.32785034179688	-294.781005859375	-2256.62060546875	79.95936584472656	-244.5048065185547	-2987.915771484375	353.5170593261719	-362.123779296875
5	0.02	-2312.0166015625	1480.704833984375	-475.2598571777344	-2376.5107421875	1474.791625976562	-190.25341796875	-2386.137939453125	1029.00732421875	-469.1329956054688	-2369.415283203125	1032.426635742188	-196.6427459716797	-2352.10400390625	974.32958984375	-448.6885681152344	-2941.310546875	366.902099609375	-342.9896850585938	-2343.129150390625	989.4666748046876	-218.8674011230469	-2505.67529296875	931.4639282226562	-490.2328491210938	-2471.9111328125	907.722900390625	-157.9305572509766	-2518.545654296875	1035.56396484375	-338.3445739746094	-2519.28515625	698.853759765625	-486.1622314453125	-2806.60986328125	468.8390502929688	-420.89306640625	-2587.949462890625	725.7647705078125	-454.728759765625	-2542.96484375	604.0458984375	-464.8345947265625	-2067.4970703125	143.4540863037109	-163.7793731689453	-2730.445068359375	530.2053833007812	-439.5055541992188	-2614.76708984375	631.8936157226562	-437.8446655273438	-2286.863037109375	719.4241943359375	-169.2629699707031	-2910.263916015625	108.7731399536133	-380.2390747070312	-2360.24658203125	696.1128540039062	-153.5665283203125	-2256.572998046875	627.1172485351562	-196.5219268798828	-2333.19873046875	600.2880249023438	-174.4690093994141	-2625.8974609375	557.56201171875	-451.9668273925781	-2282.8486328125	547.2667846679688	-180.9440460205078	-2679.202392578125	466.5139465332031	-451.2628479003906	-2759.020263671875	403.8291320800781	-436.2029113769531	-2236.354248046875	435.2469177246094	-179.2962036132812	-2948.845703125	176.7042236328125	-432.20166015625	-2319.324951171875	412.5498962402344	-184.4960784912109	-2961.718017578125	348.7200317382812	-310.4925231933594	-2215.505126953125	333.3650207519531	-188.9283599853516	-2293.200439453125	319.2295837402344	-193.9918060302734	-2917.96875	325.7145080566406	-405.3644409179688	-2209.049560546875	152.4031372070312	-209.9728546142578	-2002.252685546875	192.6755981445312	-220.5929718017578	-2245.865966796875	101.6772918701172	-269.8782348632812	-2215.081787109375	83.78813171386719	-296.6946105957031	-2236.604248046875	78.36244201660156	-246.3376770019531	-2974.94677734375	360.0430908203125	-362.3717651367188
